<?xml version="1.0" encoding="UTF-8"?>
<!DOCTYPE svg PUBLIC "-//W3C//DTD SVG 1.1//EN" "http://www.w3.org/Graphics/SVG/1.1/DTD/svg11.dtd">
<!-- Creator: CorelDRAW 2019 (64 Bit) -->
<svg xmlns="http://www.w3.org/2000/svg" xml:space="preserve" width="100mm" height="40mm" version="1.1" style="shape-rendering:geometricPrecision; text-rendering:geometricPrecision; image-rendering:optimizeQuality; fill-rule:evenodd; clip-rule:evenodd"
viewBox="0 0 10000 4000"
 xmlns:xlink="http://www.w3.org/1999/xlink"
 xmlns:xodm="http://www.corel.com/coreldraw/odm/2003">
 <defs>
  <style type="text/css">
   <![CDATA[
    .fil1 {fill:#A9ABAE}
    .fil0 {fill:#FEFEFE;fill-rule:nonzero}
   ]]>
  </style>
 </defs>
 <g id="Camada_x0020_1">
  <metadata id="CorelCorpID_0Corel-Layer"/>
  <g id="_2330579733792">
   <path class="fil0" d="M8636.69 3182.04c-86.28,0 -163.61,-14.78 -231.98,-44.34 -68.37,-29.57 -122.5,-72.71 -162.38,-129.44 -39.89,-56.73 -59.83,-125.84 -59.83,-207.34 0,-123.05 43.95,-215.73 131.86,-278.05 87.91,-62.32 200.24,-93.48 336.98,-93.48l332.1 0 0 -67.12c0,-55.93 -17.91,-101.87 -53.72,-137.82 -35.82,-35.96 -92.79,-53.94 -170.93,-53.94 -76.52,0 -133.49,17.18 -170.94,51.54 -37.44,34.36 -61.86,78.7 -73.25,133.03 -39.94,96.84 -326.27,-3.51 -283.26,-93.48 19.53,-60.72 50.87,-116.25 94.01,-166.59 43.14,-50.34 100.93,-91.09 173.37,-122.25 72.45,-31.16 160.76,-46.74 264.95,-46.74 159.54,0 285.7,39.15 378.49,117.45 92.79,78.31 139.19,191.76 139.19,340.37l0 443.45c0,47.94 22.79,71.91 68.37,71.91 157.51,0 155.75,249.28 1.72,249.28l-109.16 0c-60.23,0 -109.88,-14.38 -148.96,-43.14 -39.06,-28.77 -58.6,-67.12 -58.6,-115.06l0 -2.4 -46.4 0c-6.51,19.18 -21.16,44.35 -43.95,75.51 -22.79,31.16 -58.61,58.73 -107.44,82.69 -48.84,23.97 -115.59,35.96 -200.24,35.96zm53.72 -244.49c86.28,0 156.69,-23.57 211.23,-70.71 54.53,-47.14 81.8,-109.87 81.8,-188.17l0 -23.97 -310.12 0c-56.98,0 -101.75,11.99 -134.3,35.96 -32.56,23.97 -48.84,57.53 -48.84,100.67 0,43.15 17.09,78.3 51.28,105.47 34.18,27.16 83.84,40.75 148.95,40.75z"/>
   <polygon class="fil0" points="6950.07,3148.48 7389.61,2549.24 6954.95,1959.58 7311.47,1959.58 7587.4,2355.08 7631.35,2355.08 7907.29,1959.58 8263.8,1959.58 7829.15,2549.24 8268.69,3148.48 7907.29,3148.48 7631.35,2748.19 7587.4,2748.19 7311.47,3148.48 "/>
   <path class="fil0" d="M6201.73 2417.4l566.51 0c-6.51,-68.71 -34.59,-123.84 -84.24,-165.39 -49.65,-41.55 -114.36,-62.32 -194.13,-62.32 -83.03,0 -148.96,20.77 -197.79,62.32 -48.84,41.55 -78.96,96.68 -90.35,165.39zm295.46 764.64c-120.46,0 -226.68,-25.17 -318.66,-75.5 -91.98,-50.34 -163.61,-121.45 -214.89,-213.34 -51.28,-91.88 -76.92,-200.14 -76.92,-324.79l0 -28.76c0,-124.64 25.24,-232.91 75.7,-324.79 50.47,-91.89 121.28,-163 212.45,-213.33 91.16,-50.34 196.97,-75.51 317.44,-75.51 118.84,0 222.21,25.97 310.12,77.9 87.91,51.94 156.28,123.85 205.12,215.73 48.84,91.89 73.26,198.55 73.26,320l0 103.07 -881.53 0c3.26,81.5 34.19,147.81 92.8,198.95 58.6,51.13 130.23,76.7 214.88,76.7 86.28,0 149.77,-18.37 190.47,-55.13 40.7,-36.75 71.63,-77.5 92.79,-122.25 20.58,-81.11 323.93,-4.17 251.52,129.44 -22.8,41.55 -55.76,86.69 -98.9,135.43 -43.14,48.74 -100.53,90.29 -172.15,124.64 -71.63,34.36 -162.8,51.54 -273.5,51.54z"/>
   <path class="fil0" d="M4625.47 3148.48l0 -1135.87c0,-92.16 302.8,-92.16 302.8,0l0 102.77 43.95 0c19.54,-41.54 56.16,-81.09 109.89,-118.65 53.72,-37.55 135.11,-56.33 244.18,-56.33 94.42,0 177.04,21.18 247.86,63.52 70.81,42.35 125.75,100.68 164.82,174.98 39.07,74.31 58.61,161 58.61,260.08l0 709.5 -307.68 0 0 -685.53c0,-89.49 -22.38,-156.61 -67.15,-201.35 -44.77,-44.74 -108.67,-67.12 -191.69,-67.12 -94.42,0 -167.68,30.77 -219.77,92.29 -52.09,61.52 -78.14,147.41 -78.14,257.67l0 604.04 -307.68 0z"/>
   <path class="fil0" d="M2717.17 2791.97c282.45,-118.95 551.84,-335.68 794.54,-534.24 0,-189.25 0,-358.62 0,-547.86 0,-257.73 -49.84,-483.2 -149.62,-676.48 -99.78,-193.22 -240.06,-345 -420.83,-455.06 -180.82,-110.15 -391.73,-165.24 -632.81,-165.24 -278.47,0 -486.28,48.81 -623.45,146.53 -193.35,137.69 -285.48,230.1 -393.28,391.59l0.53 -82.99 0 -331.42c-9.95,-290.42 -813.58,-277.97 -773.01,0 0,940.01 0,1818.6 0,2747.79 250.63,-111.23 520.13,-84.71 785.51,-118.09 0,-400.8 0,-781.66 0,-1182.36 0,-286.8 66.51,-510.21 199.48,-670.22 133,-160.01 320.03,-239.97 561.11,-239.97 211.98,0 375.08,58.2 489.34,174.52 114.34,116.39 173.55,290.94 171.51,523.69l-9.02 1019.81z"/>
   <path class="fil1" d="M550.63 3416.26c7.15,2.76 14.22,6.36 21.08,9.23 55.88,23.51 152.73,50.94 211.13,66.41 263.94,69.92 503.61,120.59 774.37,154.4l167.11 17.8 427.34 13.34c33.27,-10.26 524.36,11.42 1022.07,-202.02 147.15,-63.1 281.78,-142.95 388.81,-227.38l65.46 -51.5c8.04,-5.98 11.45,-10.96 19.24,-18.16 77.95,-72.13 103.04,-90.78 175.22,-173.92 14.59,-16.8 42.92,-42.51 51.34,-60.6 -37.27,-3.03 -41.95,-7.87 -39.6,-70.58 2.79,-74.71 138.44,11.76 145.83,-62.22 1.92,-19.22 2.5,-87.57 -4.4,-101.25 -13.59,-26.91 -53.68,-21.12 -87.18,-22.24 -47.57,-1.58 -56.31,-3.43 -53.69,-54.33 2.09,-40.56 41.39,-26.66 77.51,-27.27 36.78,-0.63 30.26,-41.53 28.29,-76.66 -3.55,-62.97 -100.64,0.86 -106.07,-58.26 -9.11,-98.99 54.3,-36.38 92.97,-62.56 24.47,-16.55 -3.81,-64.65 37.4,-68.46 143.09,-13.22 17.79,90.53 123.47,94.88 117.32,4.82 112.64,15.9 113.02,-99.7 0.15,-42.68 -4.69,-58.43 -48.68,-59.98 -120.34,-4.21 -110.34,9.7 -110.91,-106.8 -0.17,-36.31 -4.88,-68.9 34.57,-69.49 46.72,-0.72 61.54,7.49 62.87,-44.15 1.05,-40.47 36.7,-31.1 72.89,-29.9 72.34,2.43 36.97,-22.6 65.75,-40.25 18.93,-11.6 62.66,13.41 63.81,-42.32 4.73,-227.73 -32.85,-208.7 113.16,-204.09 34.42,1.07 76.85,10.74 83.15,-20.94 4.17,-20.83 4.51,-87.62 -6.55,-100.29 -27.12,-31.04 -120.43,15 -124.87,-41.37 -0.71,-9.13 -0.93,-44.4 0.87,-52.16 7.1,-31.06 58.05,-1.29 67.48,-37.21 6.14,-23.36 -4.63,-86.57 3.64,-106.16 12.73,-30.04 60.61,2.07 66.91,-38.28 2.85,-18.35 -3.4,-34.44 8.83,-45.35 10.4,-9.26 27.8,-3.43 42.5,-8.37 26.67,-8.97 19.08,-53.59 19.04,-86.79 -0.03,-35.68 0.36,-71.53 0.06,-107.18 -0.14,-17.85 -5.88,-29.7 -19.56,-34.84 -13.88,-5.24 -36.02,-4.71 -45.45,2.78 -16.29,12.95 -10.18,69.51 -10.11,96.44 0.19,72.19 -24.31,36.94 -53.01,52.65 -30.28,16.59 -0.78,63.53 -34.24,71.52 -17.51,4.19 -33.3,-2.25 -44.43,9.19 -9.94,10.19 -7.08,26.71 -8.59,43.19 -4.08,44.36 -49.14,7.71 -67.41,37.99 -16.58,27.46 12.44,178.18 -16.27,197.23 -22.28,14.76 -61.13,-13.65 -60.98,43.2 0.17,62.94 -33.39,21.92 -61.25,44.89 -24.38,20.12 7.81,67.54 -37.14,69.7 -64.79,3.09 -36.57,21.15 -46.69,58.24 -9.31,34.05 -56.51,8.38 -71.14,33.56 -13.56,23.36 1.12,78.46 -7.46,99.27 -11.76,28.58 -57.85,5.88 -66.35,38.67 -4.18,16.16 3.14,35.33 -6.73,47.87 -9.02,11.48 -24.4,7.13 -41.88,8.86 -38.53,3.83 -24.24,44.06 -30.16,76.8 -7.07,39.08 -49.75,12.85 -69.56,34.8 -21.85,24.21 11.1,48.74 -59.92,45.94 -33.18,-1.32 -31.04,-0.78 -66.27,38.09 -39.35,43.43 -171.97,169.89 -216.4,205.25 -15.13,12.05 -19.07,11.48 -18.01,36.9 3.22,78.46 9.43,110.63 -46.61,109.23 -23.85,-0.57 -55.25,3.16 -72.62,-9.44l-14.42 -14.29c-7.65,10.7 -121.99,90.44 -133.44,97.49l-139.6 89.22c-92.24,57.56 -192.16,109.65 -296.65,160.51 -439.02,213.67 -940.23,332.18 -1441.94,381.21 -197.45,19.29 -440.83,26.47 -628.12,51.64 -42.48,5.71 -91.65,15.88 -133.51,31.99 -36.46,14.07 -42.51,49.71 0.68,66.38zm3638.37 -1585.86c-0.07,-26.47 6.72,-22.12 49.3,-17.38 4.52,13.1 2.57,33.54 0.73,48.24 -9.09,2.07 -23.14,1.58 -34.3,0.76 -18.47,-1.38 -15.77,-8.16 -15.73,-31.62zm-307.69 444.1c0.97,1.82 0.9,-1.24 2.3,5.61l-1.77 43.32 -0.53 -48.93zm-216.44 65.38c-0.07,-27.22 -5.78,-36.53 23.69,-35.6 22.32,0.7 18.86,-1.13 41.61,3.42 5.57,10.57 4.43,15.05 4.48,29.6 0.07,27.84 3.43,39.41 -22.29,38.65 -41.73,-1.41 -47.4,6.88 -47.49,-36.07zm-3.46 104.25l5.86 -0.07c14.56,1.67 41.13,-3.04 51.77,4.8 7.3,6.57 5.06,13.37 5.03,26.09 -0.04,9.42 0.69,19.66 -0.58,28.56l-62.08 -59.38zm-87.08 98.73c43.07,1.33 32.86,22.11 33.18,61.78 0.38,42.6 -20.86,32.51 -59.41,31.21 -43.01,-1.44 -34.1,-21.3 -34.5,-60.38 -0.44,-43.75 19.9,-33.86 60.73,-32.61zm134.31 87.23c15.65,-6.23 48.83,-4.86 64.61,2.03 3.74,13.18 4.54,34.81 2.98,51.39 -1.87,19.85 -16.08,16.25 -35.33,15.63 -21.76,-0.68 -33.86,2.64 -34.98,-20.03 -0.78,-16.22 -0.88,-36.46 2.72,-49.02zm-348.56 58.77c13.22,-4.79 60.82,-0.39 78.61,0.12 70.06,2.01 60.44,5.75 60.59,100.18 0.04,27.76 4.16,52.92 -19.45,59.53 -13.1,3.66 -61.64,0.09 -79.21,-0.42 -27.68,-0.82 -50.24,2.21 -57.92,-22.63 -4.08,-13.14 -2.28,-60.44 -2.33,-77.12 -0.14,-27.63 -3.48,-51.26 19.71,-59.66zm357.04 154.06c-22.74,-0.7 -19.25,-10.21 -19.24,-30.89 0,-22.6 -4.82,-29.99 19.24,-29.24 37.73,1.19 40.04,-2.19 40.06,19.18 0.03,49.24 4.4,42.32 -40.06,40.95zm-121.06 -34.07c-0.07,-15.8 2.94,-16.72 18.74,-16.24 52.04,1.58 44.5,0.24 44.65,39.64 0.07,21.03 0.32,26.25 -20.86,25.53 -47.12,-1.54 -42.29,6.7 -42.53,-48.93zm-487.85 -11.11c12.1,-3.06 37.82,-0.27 52.14,0.15 18.51,0.53 30.88,2.19 34.33,18.47 2.2,10.37 0.74,39.16 0.78,51.43 0.05,18.28 -2.21,30.84 -16.65,34.7 -9.11,2.41 -42.77,0.25 -54.27,-0.22 -18.52,-0.79 -30.48,-5.03 -34.07,-19.8 -2.34,-9.63 -1.03,-39.77 -1.02,-51.46 0,-20.53 1.18,-28.84 18.76,-33.27zm425.8 106.72c-0.05,-15.16 6.9,-15.72 21.29,-15.28 32.08,0.95 33.56,-1.56 33.84,19.39l-2.15 34.39c-10.69,0.85 -44.5,2.97 -50.24,-3.23 -3.03,-3.28 -2.72,-27.66 -2.74,-35.27zm-258.61 44.27c0.07,-30.51 1.22,-31.36 32.42,-30.41 43.59,1.34 37.17,4.35 37.22,44.48 0.04,31.86 -10.65,25.95 -42.1,24.74 -31.33,-1.22 -27.59,-10.01 -27.54,-38.81zm461.39 4.88c0,-14.31 3.55,-19.25 18.4,-18.72 43.11,1.49 55.8,-13.49 46.56,65.27 -14.65,5.97 -45.28,1.38 -61.59,-0.93 -5.25,-12.08 -3.37,-29.34 -3.37,-45.62zm-362.86 169.52c-0.02,-41.58 11.87,-40.39 50.49,-39.24 72.57,2.21 67.52,2.43 67.56,71.47 0.03,50.81 -11.56,46.55 -60.42,44.77 -61.12,-2.23 -57.63,-2.11 -57.63,-77zm349.56 -619.62c-4.57,-0.13 -3.3,-1.05 -2.4,3.91 0.95,4.17 1.7,3.35 -2.46,2.18 -6.22,7.44 -45.54,3.84 -54.51,-0.22 -4.45,1.15 -4.11,2.54 -3.17,-1.63 -4.15,0.69 -2.59,1 -1.21,-3.52 -3.52,-7.02 -6.51,-51.18 1.53,-53.78 -1.14,-4.21 -2.18,-3.67 1.94,-2.72l-6.82 -1.08 3.35 57.58 1.21 3.52 3.17 1.63 54.51 0.22 2.46 -2.18c3.79,0.29 2.31,0.89 2.4,-3.91zm152.81 -176.37l-47.86 -2.79c0.42,-3.65 1.15,-2.69 -2.65,-2.43 -5.64,-12.95 -2.84,-37.28 -2.16,-51.46 -1.36,-4.35 -2.41,-3.83 1.89,-2.74l50.78 59.42zm5.54 -3.71l-1.65 3.01 1.65 -3.01zm-0.53 -48.93l0.53 48.93c1.29,4.5 2.63,4.22 -1.65,3.01l-3.89 0.7c-5.57,2.75 -46.88,4.23 -47.86,-2.79 -4.4,0.83 -3.72,1.83 -2.65,-2.43 -7.95,-3.92 -5.17,-14.8 -5.18,-24.76 -0.02,-10.85 -1.87,-18.36 3.02,-26.7l1.89 -2.74 3.58 -1.38c14.89,0.96 45.23,-3.5 52.21,8.16zm-270.74 745.61l3.79 1.72c-0.56,3.4 -1.29,2.67 2.14,2.22l1.09 4.52 -1.31 46.15c-3.89,10.79 -10.45,8.15 -25.23,7.71 -10.37,-0.32 -19.97,0.22 -30.06,-2.29 -9.9,-9.91 -12.1,-49.89 -0.29,-60.89l49.87 0.86zm-467.38 17.77l2.74 2.03 0.22 41.61c-7.25,6.08 -34.08,3.17 -37.8,1.98 -17.67,-5.65 -9.57,-44.09 -4.88,-46.7l39.72 1.08zm-128.89 139.6c6.21,-3.45 37.81,-0.82 44.79,1.24 1.6,8.26 1.67,20.15 1.5,30.04 -0.24,14.83 -2.04,15.07 -16.91,14.61l-29.94 -2.84c-1,-19.61 -1.85,-23.58 0.56,-43.05zm1830.77 -1406.56l0 -144.17c-21.19,-12.49 -20.19,-10.06 -49.97,-10.99 -106.91,-3.31 -102.62,-10.45 -102.42,78.09 0.1,44.45 -9.43,79.68 40.44,81.86 33.03,1.44 88.69,8.73 111.95,-4.79zm-929.47 -47.08c-53.62,4.04 -74.27,-7.33 -67.6,53.74 5.99,54.96 -5.15,71.78 54.7,67.67 12.14,-0.83 45.73,-2.07 54.9,-5.25 19.51,-6.74 15.28,-26.37 13.03,-48.18 -7.07,-68.37 -1.44,-72.03 -55.03,-67.98zm579.28 179.14c-60.37,5.46 -78.43,-3.38 -73.08,43.89 5.18,45.74 -3.13,77.77 49.36,72.75 56.41,-5.4 74.74,2.28 69.54,-43.02 -6.32,-54.93 0.9,-77.85 -45.82,-73.62zm-342.99 198.64c-15.41,5 -13.44,17.91 -13.42,36.5 0.13,61.54 -5.71,64.37 40.3,65.63 52.28,1.43 64.05,9.26 63.69,-36.17 -0.49,-61.22 6.32,-64.94 -39.89,-66.2 -14.65,-0.4 -38.26,-3.79 -50.68,0.24zm-57.69 -737.49c-41.57,4.15 -64.56,-7.51 -59.5,39.81 4.51,42.19 -3.73,65.74 44.01,61.16 39.23,-3.73 63.68,4.66 58.26,-38.97 -7.24,-58.21 -0.37,-66.25 -42.77,-62zm67.92 1381.48c6.3,9.5 14.93,12.51 27.15,18.91 36.03,18.88 35.44,19.83 52.07,-15.66 16.14,-34.48 18.74,-33.68 -16.92,-51.69 -8.99,-4.53 -22.43,-14.63 -32.88,-11.91 -10.36,2.7 -31.84,44.04 -29.42,60.35zm134.36 -1689.91c-13.83,4.3 -13.19,8.34 -13.14,25.69 0.04,8.72 -1.1,30.5 1.09,37.57 3.3,10.63 11.59,12.03 25.1,12.38 8.71,0.22 32.4,2.18 39.14,0.31 18.69,-5.17 10.13,-63.39 10.04,-63.67 -6.03,-19.94 -60.82,-12.72 -62.23,-12.28zm312.03 -157.69c-14.07,-3.94 -61.15,-8.6 -68.12,3.48 -1.93,3.37 -8.81,58.61 5.3,66.25 8.89,4.84 59.1,6.37 65.26,-3.01 8.21,-12.5 2.67,-57.65 -2.44,-66.72zm-784.93 1041.18c-11.35,3.5 -12.3,10.25 -12.52,24.47 -0.58,36.75 -3.62,49.29 27.28,50.36 39.08,1.39 48.61,5.2 48.82,-23.98 0.27,-37.48 4.04,-49.8 -27.14,-51.09 -11.18,-0.46 -26.72,-2.78 -36.44,0.24zm780.58 -547.91c0.12,55.58 -3.88,50.63 52.92,52.6 28.41,0.99 23.08,-17.48 23.06,-50.22 0,-29.04 -9.99,-25.01 -49.24,-26.2 -20.61,-0.65 -26.78,3.02 -26.74,23.82zm124.83 -489.04c-14.07,3.69 -13.08,6.32 -12.97,23.7 0.29,42.16 -5.64,49.94 26.63,50.96 36.14,1.14 48.54,6.9 48.4,-24.62 -0.03,-8.46 0.8,-31.11 -0.83,-37.94 -2.87,-12.1 -11.36,-12.01 -25.94,-12.51 -11.27,-0.37 -25.73,-2.12 -35.29,0.41zm-664.77 1678.53c0.05,32.61 -3.96,45.96 26.5,46.89 41.54,1.28 48.87,8.33 48.82,-32.65 -0.06,-43.6 2.03,-41.71 -51.2,-43.41 -23.02,-0.73 -24.19,6.52 -24.12,29.17zm519.09 -1872.93c36.63,1.19 33.81,1.05 33.8,-37.09 0,-24.78 -10.84,-22.24 -36.18,-23.03 -24.97,-0.78 -23.09,7.94 -23.1,30.74 -0.02,23.23 1.54,28.58 25.48,29.38zm179.74 49.42c8.09,9.62 33.9,7.31 42.51,3.72 2.15,-14.32 5.1,-27.54 -0.27,-42.15 -13.06,-2.96 -40.67,-10.43 -44.41,6.29 -2.12,9.48 -1.12,25.33 2.17,32.14zm-26.89 -268.38l-47.12 -1.48c-1.05,15.14 -3.33,29.46 5.8,36.4 8.39,5.02 25.04,4.45 35.93,2.41 8.26,-9.07 7.94,-21.33 5.39,-37.33zm108.91 731.46l0 -53.83 -6.37 4.08c-1.28,9.46 -0.92,18.47 -0.87,28.17 0.07,13.12 -1,16.04 7.24,21.58z"/>
   <path class="fil0" d="M4692.29 3661.94l0 -235.56 -84.13 0 0 -38.34 210.52 0 0 38.34 -84.13 0 0 235.56 -42.26 0zm256.29 5.48c-33.65,0 -60.39,-9.46 -80.21,-28.37 -19.83,-18.91 -29.74,-46.24 -29.74,-81.98l0 -64.17c0,-35.74 9.91,-63.06 29.74,-81.97 19.82,-18.91 46.56,-28.37 80.21,-28.37 33.65,0 60.46,9.46 80.41,28.37 19.96,18.91 29.94,46.23 29.94,81.97l0 64.17c0,35.74 -9.98,63.07 -29.94,81.98 -19.95,18.91 -46.76,28.37 -80.41,28.37zm0 -37.96c21.39,0 38.02,-6.32 49.89,-18.97 11.87,-12.66 17.81,-29.94 17.81,-51.85l0 -67.3c0,-21.91 -5.94,-39.2 -17.81,-51.85 -11.87,-12.65 -28.5,-18.98 -49.89,-18.98 -21.39,0 -38.02,6.33 -49.89,18.98 -11.87,12.65 -17.8,29.94 -17.8,51.85l0 67.3c0,21.91 5.93,39.19 17.8,51.85 11.87,12.65 28.5,18.97 49.89,18.97zm262.95 37.96c-32.34,0 -57.84,-8.68 -76.5,-26.02 -18.65,-17.35 -27.97,-41.81 -27.97,-73.37l0 -179.99 42.65 0 0 181.16c0,19.31 5.35,34.18 16.04,44.61 10.7,10.44 25.96,15.65 45.78,15.65 19.83,0 35.09,-5.21 45.78,-15.65 10.7,-10.43 16.05,-25.3 16.05,-44.61l0 -181.16 42.26 0 0 179.99c0,31.56 -9.33,56.02 -27.98,73.37 -18.65,17.34 -44.02,26.02 -76.11,26.02zm260.99 0c-33.39,0 -59.87,-9.46 -79.43,-28.37 -19.57,-18.91 -29.35,-46.24 -29.35,-81.98l0 -64.17c0,-35.74 9.78,-63.06 29.35,-81.97 19.56,-18.91 46.04,-28.37 79.43,-28.37 32.87,0 58.24,9.13 76.11,27.39 17.86,18.26 26.8,43.17 26.8,74.74l0 1.95 -41.87 0 0 -3.13c0,-18.52 -5.02,-33.65 -15.06,-45.39 -10.05,-11.74 -25.37,-17.61 -45.98,-17.61 -20.87,0 -37.17,6.33 -48.91,18.98 -11.74,12.65 -17.61,30.2 -17.61,52.63l0 65.74c0,22.43 5.87,39.97 17.61,52.63 11.74,12.65 28.04,18.97 48.91,18.97 20.61,0 35.93,-5.87 45.98,-17.61 10.04,-11.73 15.06,-26.86 15.06,-45.38l0 -6.66 41.87 0 0 5.48c0,31.57 -8.94,56.48 -26.8,74.74 -17.87,18.26 -43.24,27.39 -76.11,27.39zm149.86 -5.48l0 -273.9 42.26 0 0 117.38 115.04 0 0 -117.38 42.26 0 0 273.9 -42.26 0 0 -118.17 -115.04 0 0 118.17 -42.26 0zm256.69 0l0 -273.9 42.26 0 0 273.9 -42.26 0zm99.39 0l0 -273.9 81.39 0 74.35 245.73 6.26 0 0 -245.73 41.87 0 0 273.9 -81.39 0 -74.35 -246.12 -6.26 0 0 246.12 -41.87 0zm356.08 5.48c-19.57,0 -37.04,-4.24 -52.44,-12.72 -15.39,-8.48 -27.52,-20.93 -36.39,-37.37 -8.86,-16.43 -13.3,-36.52 -13.3,-60.26l0 -64.17c0,-35.74 9.78,-63.06 29.35,-81.97 19.56,-18.91 46.04,-28.37 79.43,-28.37 32.87,0 58.17,8.93 75.91,26.8 17.74,17.87 26.61,41.81 26.61,71.8l0 1.96 -41.87 0 0 -3.13c0,-16.96 -4.96,-31.11 -14.87,-42.45 -9.91,-11.35 -25.17,-17.03 -45.78,-17.03 -20.87,0 -37.17,6.33 -48.91,18.98 -11.74,12.65 -17.61,30.2 -17.61,52.63l0 65.74c0,22.43 5.87,40.04 17.61,52.82 11.74,12.78 28.17,19.17 49.3,19.17 20.87,0 36.13,-5.67 45.78,-17.02 9.65,-11.34 14.48,-26.28 14.48,-44.8l0 -5.09 -73.56 0 0 -36.39 115.43 0 0 135.39 -39.13 0 0 -27.78 -6.26 0c-2.35,4.95 -5.81,10.04 -10.37,15.26 -4.57,5.22 -11.09,9.52 -19.57,12.91 -8.47,3.39 -19.76,5.09 -33.84,5.09zm329.85 -5.48l0 -99.39 -95.09 -174.51 47.74 0 65.74 124.04 5.87 0 65.73 -124.04 47.74 0 -95.08 174.51 0 99.39 -42.65 0zm262.55 5.48c-33.65,0 -60.39,-9.46 -80.21,-28.37 -19.83,-18.91 -29.74,-46.24 -29.74,-81.98l0 -64.17c0,-35.74 9.91,-63.06 29.74,-81.97 19.82,-18.91 46.56,-28.37 80.21,-28.37 33.65,0 60.46,9.46 80.41,28.37 19.96,18.91 29.94,46.23 29.94,81.97l0 64.17c0,35.74 -9.98,63.07 -29.94,81.98 -19.95,18.91 -46.76,28.37 -80.41,28.37zm0 -37.96c21.39,0 38.02,-6.32 49.89,-18.97 11.87,-12.66 17.81,-29.94 17.81,-51.85l0 -67.3c0,-21.91 -5.94,-39.2 -17.81,-51.85 -11.87,-12.65 -28.5,-18.98 -49.89,-18.98 -21.39,0 -38.02,6.33 -49.89,18.98 -11.87,12.65 -17.8,29.94 -17.8,51.85l0 67.3c0,21.91 5.93,39.19 17.8,51.85 11.87,12.65 28.5,18.97 49.89,18.97zm262.95 37.96c-32.34,0 -57.84,-8.68 -76.5,-26.02 -18.65,-17.35 -27.97,-41.81 -27.97,-73.37l0 -179.99 42.65 0 0 181.16c0,19.31 5.35,34.18 16.04,44.61 10.7,10.44 25.96,15.65 45.78,15.65 19.83,0 35.09,-5.21 45.78,-15.65 10.7,-10.43 16.05,-25.3 16.05,-44.61l0 -181.16 42.26 0 0 179.99c0,31.56 -9.33,56.02 -27.98,73.37 -18.65,17.34 -44.02,26.02 -76.11,26.02zm159.25 -5.48l0 -273.9 115.04 0c16.96,0 31.83,3 44.61,9 12.78,6 22.83,14.41 30.13,25.23 7.3,10.83 10.96,23.81 10.96,38.94l0 4.3c0,17.22 -4.11,30.98 -12.33,41.28 -8.22,10.31 -18.19,17.55 -29.93,21.72l0 6.26c9.91,0.52 17.87,3.91 23.87,10.17 6,6.26 8.99,15 8.99,26.22l0 90.78 -42.25 0 0 -84.91c0,-7.04 -1.9,-12.65 -5.68,-16.83 -3.78,-4.17 -9.72,-6.26 -17.8,-6.26l-83.35 0 0 108 -42.26 0zm42.26 -146.34l68.09 0c15.13,0 26.87,-3.78 35.21,-11.35 8.35,-7.56 12.53,-18.13 12.53,-31.69l0 -3.13c0,-13.31 -4.11,-23.81 -12.33,-31.5 -8.22,-7.7 -20.02,-11.55 -35.41,-11.55l-68.09 0 0 89.22zm294.65 146.34l0 -37.56 37.17 0 0 -198.78 -37.17 0 0 -37.56 138.91 0c16.43,0 30.78,2.8 43.04,8.41 12.26,5.61 21.85,13.63 28.76,24.06 6.91,10.44 10.37,22.57 10.37,36.39l0 3.92c0,12.52 -2.35,22.82 -7.04,30.91 -4.7,8.09 -10.44,14.41 -17.22,18.98 -6.78,4.56 -13.04,7.63 -18.78,9.19l0 6.26c6,1.57 12.45,4.57 19.37,9 6.91,4.44 12.78,10.76 17.6,18.98 4.83,8.22 7.24,18.85 7.24,31.89l0 3.91c0,15.13 -3.52,28.05 -10.56,38.74 -7.04,10.7 -16.83,18.91 -29.35,24.65 -12.52,5.74 -26.74,8.61 -42.65,8.61l-139.69 0zm79.43 -157.3l55.17 0c13.31,0 24,-3.32 32.09,-9.98 8.09,-6.65 12.13,-15.71 12.13,-27.19l0 -3.91c0,-11.48 -3.98,-20.55 -11.93,-27.2 -7.96,-6.65 -18.72,-9.98 -32.29,-9.98l-55.17 0 0 78.26zm0 118.95l55.17 0c14.09,0 25.18,-3.39 33.26,-10.17 8.09,-6.78 12.13,-16.17 12.13,-28.17l0 -3.52c0,-12 -3.97,-21.39 -11.93,-28.18 -7.96,-6.78 -19.11,-10.17 -33.46,-10.17l-55.17 0 0 80.21zm292.69 43.83c-32.34,0 -57.84,-8.68 -76.5,-26.02 -18.65,-17.35 -27.97,-41.81 -27.97,-73.37l0 -179.99 42.65 0 0 181.16c0,19.31 5.35,34.18 16.04,44.61 10.7,10.44 25.96,15.65 45.78,15.65 19.83,0 35.09,-5.21 45.78,-15.65 10.7,-10.43 16.05,-25.3 16.05,-44.61l0 -181.16 42.26 0 0 179.99c0,31.56 -9.33,56.02 -27.98,73.37 -18.65,17.34 -44.02,26.02 -76.11,26.02zm252.38 0c-20.61,0 -38.87,-3.65 -54.78,-10.96 -15.91,-7.3 -28.37,-18.06 -37.37,-32.28 -9,-14.22 -13.5,-31.5 -13.5,-51.85l0 -9.78 41.87 0 0 9.78c0,19.57 5.81,34.11 17.41,43.63 11.61,9.52 27.07,14.29 46.37,14.29 19.3,0 33.98,-4.11 44.02,-12.33 10.04,-8.22 15.07,-18.85 15.07,-31.89 0,-13.04 -5.16,-22.5 -15.46,-28.37 -10.3,-5.87 -24.46,-10.89 -42.45,-15.06l-14.48 -3.53c-17.74,-3.91 -33,-8.99 -45.78,-15.26 -12.79,-6.26 -22.7,-14.47 -29.74,-24.65 -7.04,-10.17 -10.57,-23.21 -10.57,-39.13 0,-24.26 8.68,-43.23 26.02,-56.93 17.35,-13.69 40.24,-20.54 68.68,-20.54 19.04,0 36.06,3.26 51.06,9.78 15,6.52 26.8,16.17 35.41,28.96 8.61,12.78 12.91,28.82 12.91,48.13l0 14.08 -41.86 0 0 -14.08c0,-17.74 -5.29,-30.46 -15.85,-38.16 -10.57,-7.69 -24.46,-11.54 -41.67,-11.54 -16.96,0 -30,3.46 -39.13,10.37 -9.13,6.91 -13.7,16.5 -13.7,28.76 0,12.52 4.5,21.78 13.5,27.78 9,6 22.24,10.96 39.72,14.87l14.47 3.52c17.48,3.92 33.07,8.94 46.76,15.07 13.7,6.13 24.46,14.41 32.29,24.84 7.82,10.44 11.73,23.87 11.73,40.31 0,16.43 -4.1,30.78 -12.32,43.04 -8.22,12.26 -19.89,21.85 -35.02,28.76 -15.13,6.91 -33,10.37 -53.61,10.37zm145.56 -5.48l0 -273.9 42.26 0 0 273.9 -42.26 0zm99.39 0l0 -273.9 81.39 0 74.35 245.73 6.26 0 0 -245.73 41.87 0 0 273.9 -81.39 0 -74.35 -246.12 -6.26 0 0 246.12 -41.87 0zm260.99 0l0 -273.9 172.56 0 0 38.34 -130.3 0 0 78.65 119.35 0 0 38.35 -119.35 0 0 80.21 132.26 0 0 38.35 -174.52 0zm311.86 5.48c-20.61,0 -38.87,-3.65 -54.78,-10.96 -15.91,-7.3 -28.37,-18.06 -37.37,-32.28 -9,-14.22 -13.5,-31.5 -13.5,-51.85l0 -9.78 41.87 0 0 9.78c0,19.57 5.81,34.11 17.41,43.63 11.61,9.52 27.07,14.29 46.37,14.29 19.3,0 33.98,-4.11 44.02,-12.33 10.04,-8.22 15.07,-18.85 15.07,-31.89 0,-13.04 -5.16,-22.5 -15.46,-28.37 -10.3,-5.87 -24.46,-10.89 -42.45,-15.06l-14.48 -3.53c-17.74,-3.91 -33,-8.99 -45.78,-15.26 -12.79,-6.26 -22.7,-14.47 -29.74,-24.65 -7.04,-10.17 -10.57,-23.21 -10.57,-39.13 0,-24.26 8.68,-43.23 26.02,-56.93 17.35,-13.69 40.24,-20.54 68.68,-20.54 19.04,0 36.06,3.26 51.06,9.78 15,6.52 26.8,16.17 35.41,28.96 8.61,12.78 12.91,28.82 12.91,48.13l0 14.08 -41.86 0 0 -14.08c0,-17.74 -5.29,-30.46 -15.85,-38.16 -10.57,-7.69 -24.46,-11.54 -41.67,-11.54 -16.96,0 -30,3.46 -39.13,10.37 -9.13,6.91 -13.7,16.5 -13.7,28.76 0,12.52 4.5,21.78 13.5,27.78 9,6 22.24,10.96 39.72,14.87l14.47 3.52c17.48,3.92 33.07,8.94 46.76,15.07 13.7,6.13 24.46,14.41 32.29,24.84 7.82,10.44 11.73,23.87 11.73,40.31 0,16.43 -4.1,30.78 -12.32,43.04 -8.22,12.26 -19.89,21.85 -35.02,28.76 -15.13,6.91 -33,10.37 -53.61,10.37zm238.69 0c-20.61,0 -38.87,-3.65 -54.78,-10.96 -15.91,-7.3 -28.37,-18.06 -37.37,-32.28 -9,-14.22 -13.5,-31.5 -13.5,-51.85l0 -9.78 41.87 0 0 9.78c0,19.57 5.81,34.11 17.41,43.63 11.61,9.52 27.07,14.29 46.37,14.29 19.3,0 33.98,-4.11 44.02,-12.33 10.04,-8.22 15.07,-18.85 15.07,-31.89 0,-13.04 -5.16,-22.5 -15.46,-28.37 -10.3,-5.87 -24.46,-10.89 -42.45,-15.06l-14.48 -3.53c-17.74,-3.91 -33,-8.99 -45.78,-15.26 -12.79,-6.26 -22.7,-14.47 -29.74,-24.65 -7.04,-10.17 -10.57,-23.21 -10.57,-39.13 0,-24.26 8.68,-43.23 26.02,-56.93 17.35,-13.69 40.24,-20.54 68.68,-20.54 19.04,0 36.06,3.26 51.06,9.78 15,6.52 26.8,16.17 35.41,28.96 8.61,12.78 12.91,28.82 12.91,48.13l0 14.08 -41.86 0 0 -14.08c0,-17.74 -5.29,-30.46 -15.85,-38.16 -10.57,-7.69 -24.46,-11.54 -41.67,-11.54 -16.96,0 -30,3.46 -39.13,10.37 -9.13,6.91 -13.7,16.5 -13.7,28.76 0,12.52 4.5,21.78 13.5,27.78 9,6 22.24,10.96 39.72,14.87l14.47 3.52c17.48,3.92 33.07,8.94 46.76,15.07 13.7,6.13 24.46,14.41 32.29,24.84 7.82,10.44 11.73,23.87 11.73,40.31 0,16.43 -4.1,30.78 -12.32,43.04 -8.22,12.26 -19.89,21.85 -35.02,28.76 -15.13,6.91 -33,10.37 -53.61,10.37z"/>
  </g>
 </g>
</svg>
